<?xml version="1.0" encoding="UTF-8"?>
<svg version="1.1" xmlns="http://www.w3.org/2000/svg" width="329" height="261">
<path d="M0 0 C108.57 0 217.14 0 329 0 C329 86.13 329 172.26 329 261 C220.43 261 111.86 261 0 261 C0 174.87 0 88.74 0 0 Z " fill="#131313" transform="translate(0,0)"/>
<path d="M0 0 C10.56 0 21.12 0 32 0 C36.61834971 12.93137919 41.04162258 25.58998654 44 39 C44.66 39 45.32 39 46 39 C46.1134375 38.16082031 46.226875 37.32164063 46.34375 36.45703125 C47.05903799 32.68899628 48.19104948 29.29091902 49.5 25.6875 C50.16515625 23.83705078 50.16515625 23.83705078 50.84375 21.94921875 C52 19 52 19 53 18 C53.50288264 15.65473823 53.89903153 13.29746171 54.3046875 10.93359375 C55.19192642 7.19024304 56.6492072 3.60211413 58 0 C68.89 0 79.78 0 91 0 C91.85464844 2.73152344 92.70929688 5.46304688 93.58984375 8.27734375 C94.41649016 10.9119376 95.24420298 13.54619415 96.07202148 16.18041992 C96.64833507 18.01633228 97.22353321 19.85259516 97.79760742 21.68920898 C98.62127828 24.3236765 99.44890619 26.95687189 100.27734375 29.58984375 C100.53466782 30.41588608 100.79199188 31.24192841 101.05711365 32.09300232 C101.99070308 35.83983008 101.99070308 35.83983008 104 39 C104.268125 38.195625 104.53625 37.39125 104.8125 36.5625 C108.875 24.375 112.9375 12.1875 117 0 C127.56 0 138.12 0 149 0 C147.23917563 5.86941456 145.47079496 11.72161191 143.625 17.5625 C140.96808303 26.00876407 138.47919124 34.49991576 136 43 C125.77 43 115.54 43 105 43 C105.78375 45.31 106.5675 47.62 107.375 50 C110.1354358 58.20153615 110.1354358 58.20153615 111.0625 62.25 C112.08900933 66.35603732 113.53060341 70.1672478 115.09765625 74.09375 C116 77 116 77 117 85 C106.77 85 96.54 85 86 85 C81.09967846 71.52411576 81.09967846 71.52411576 78.9375 65.125 C78.69451172 64.42503906 78.45152344 63.72507813 78.20117188 63.00390625 C75.96062343 56.3595212 74.60249113 49.94412822 73 43 C64.09 43 55.18 43 46 43 C47.2375 46.691875 48.475 50.38375 49.75 54.1875 C51.17257877 58.45638634 52.58811592 62.72756522 54 67 C54.25458984 67.76957031 54.50917969 68.53914063 54.77148438 69.33203125 C55.35676048 71.11422337 55.9291916 72.90062154 56.5 74.6875 C56.7990625 75.61949219 57.098125 76.55148438 57.40625 77.51171875 C58 80 58 80 58 85 C47.77 85 37.54 85 27 85 C22.875 72.625 22.875 72.625 21.5222168 68.56225586 C19.75952858 63.26888533 17.99555687 57.97611065 16.20703125 52.69140625 C13.67405753 45.19367755 11.32140842 37.7004766 9.2109375 30.0703125 C7.25975868 23.30693675 4.91211574 16.65856581 2.64111328 9.99755859 C2.30063965 8.99289551 1.96016602 7.98823242 1.609375 6.953125 C1.29967773 6.04723633 0.98998047 5.14134766 0.67089844 4.20800781 C0 2 0 2 0 0 Z " fill="#FBFBFB" transform="translate(81,80)"/>
<path d="M0 0 C2.60153953 2.60153953 2.9198525 4.76424544 3.875 8.3125 C4.22175781 9.56933594 4.56851563 10.82617188 4.92578125 12.12109375 C5.19189209 13.08958252 5.19189209 13.08958252 5.46337891 14.07763672 C7.28611827 20.6073227 9.21841363 27.12095379 11.6875 33.4375 C13 37 13 37 14 43 C5.42 43 -3.16 43 -12 43 C-12.33 43.66 -12.66 44.32 -13 45 C-13.33 43.02 -13.66 41.04 -14 39 C-13.34 39 -12.68 39 -12 39 C-11.8865625 38.16082031 -11.773125 37.32164063 -11.65625 36.45703125 C-10.94096201 32.68899628 -9.80895052 29.29091902 -8.5 25.6875 C-8.0565625 24.45386719 -7.613125 23.22023438 -7.15625 21.94921875 C-6 19 -6 19 -5 18 C-4.67533241 16.48586842 -4.39052676 14.96311431 -4.125 13.4375 C-3.22288588 8.68773248 -1.8219347 4.47202154 0 0 Z " fill="#DEDEDE" transform="translate(139,80)"/>
<path d="M0 0 C0.99 0.33 1.98 0.66 3 1 C1.68 4.63 0.36 8.26 -1 12 C-1.66 12 -2.32 12 -3 12 C-4.42041821 9.15916359 -4.31452272 7.14522722 -4 4 C-2 1.625 -2 1.625 0 0 Z " fill="#1A1A1A" transform="translate(128,107)"/>
<path d="M0 0 C1.37562854 1.28965176 2.70766393 2.62689293 4 4 C4 4.66 4 5.32 4 6 C3.34 6 2.68 6 2 6 C1.67 6.66 1.34 7.32 1 8 C0.34 5.69 -0.32 3.38 -1 1 C-0.67 0.67 -0.34 0.34 0 0 Z " fill="#1A1A1A" transform="translate(195,149)"/>
</svg>
